<?xml version="1.0" encoding="UTF-8"?>
<svg data-bbox="9.188 2.03 463.672 120.861" xmlns="http://www.w3.org/2000/svg" viewBox="0 0 479 134" height="134pt" width="479pt" data-type="color">
    <g>
        <path d="M208.26 91.94c2.13-.81 4.31-1.45 6.55-1.9-.95 1.19-1.09 3.86-3.18 3.65-1.17-.5-2.29-1.08-3.37-1.75z" fill="#ffffff" data-color="1"/>
        <path d="M74.99 9.1c4.67-.47 6.41-6.21 10.95-7.01 5.12-.74 7.91 5.58 12.95 5.06 1.76.33 4.61-.75 5.43 1.46 1.45 4.06 1.43 8.59 3.66 12.39 3.33 5.39 1.7 12.36-1.66 17.33-4.97 7.26-12.51 12.56-20.63 15.76 4.6-6.33 12.93-10.1 14.96-18.11 1.07-3.77-3.48-3.96-5.9-4.91-.22-4 .69-9.16-2.95-11.94-4.55-2.55-6.09 3.86-7.75 6.78-1.38-1.59-2.59-3.39-4.36-4.59-3.05-.36-4.43 2.97-4.87 5.43-1.02 5.96-.89 12.11-2.5 17.98-2.18-6.79-3.77-13.76-5.25-20.74-.9-4.16-.96-8.8 1.32-12.55 1.33-2.27 4.42-1.66 6.6-2.34z" fill="#e3b5ac" data-color="2"/>
        <path d="M29.02 15.65c4.4.29 4.91-5.88 8.9-6.68 7.54-1.39 14.49 3.63 18.81 9.36 5.82 7.9 9.84 17.22 11.21 26.96-2.93-6.36-5.74-13.4-11.75-17.49-2.16-1.52-5.9-2.56-7.47.29-.39 2.51.79 4.89 1.52 7.22-7.01-3.98-14.37-8.56-22.75-8.22l-1.28 3.21c2.44 3.11 5.28 5.87 8.43 8.26-4.01.31-7.64 2.1-9.84 5.53 1.61 1.74 3.15 3.78 5.52 4.5 6.5 2.31 13.61 2.37 20 5.05 3.82 1.47 7.16 3.88 10.33 6.43-13.34.73-27.07 1-40-2.81-5.49-1.69-11.8-5.78-11.43-12.28-.38-4.57 2.72-8.2 4.25-12.22.23-4.51-2.64-9.63.62-13.62 3.72-4.24 9.93-3 14.93-3.49z" fill="#e3b5ac" data-color="2"/>
        <path d="M110.73 42.7c3.12-1.42 6.79-3.06 10.19-1.71 3.52 2 3.43 6.54 3.81 10.06.08 4.21 3.66 7.08 4.86 10.92-.12 4.32-4.64 5.89-7.27 8.5-1.7 2.95-1.28 7.46-4.74 9.14-3.86 1.2-8 1.39-11.69 3.15-3.65 1.89-7.75.09-11.12-1.54-3.97-1.91-6.5-5.64-8.51-9.41 4.51 1.72 8.79 4.47 13.71 4.77 3.5.24 3.9-3.73 4.87-6.15 4.03-.99 10.67-.09 11.64-5.47-.88-2.55-3.74-3.27-5.84-4.52.01-1.69.07-3.38-.11-5.06-7.14-1.86-13.97 2.6-21.02 3.28 6.29-6.25 13.31-11.9 21.22-15.96z" fill="#e3b5ac" data-color="2"/>
        <path d="M71.62 60.49c1.54-2.6 6.4-2.7 7.03.69 1.95 6.07 3.79 12.32 7.59 17.56 4.66 7.09 13.47 12.1 22.07 9.86.12.64.37 1.92.49 2.56 1.13-.65 2.26-1.29 3.39-1.94l.12 4.4c1.27-.46 2.95-.24 3.91-1.32.87-1.61 1.32-3.39 1.88-5.12.24 1.64.5 3.28.77 4.93 2.38-2.06 4.33-4.53 6.14-7.08-.44 2.3-.93 4.59-1.16 6.91 3.27 1.33 4.31-3.03 6.52-4.55 2.18-.58 3.08 1.94 4.23 3.24-2.78.87-5.58 1.69-8.36 2.56-.03.51-.07 1.53-.1 2.04 1.87.73 4.01 1.08 5.46 2.58-.29.71-.87 2.12-1.16 2.82-3.16-.4-5.78-2.61-8.96-3.09-.06 1.21-.17 3.61-.23 4.81-1.39-1.85-2.77-3.69-4.18-5.52-1.01 1.94-2.01 3.89-3.04 5.82-.23-1.65-.45-3.31-.67-4.96-1.23.86-2.45 1.73-3.67 2.6-.56-1.53-1.13-3.06-1.7-4.58-.82 1.31-1.62 2.62-2.41 3.95-.52-1.82.14-4.37-1.74-5.54-4.01-2.92-8.81-4.46-13.04-7.02-6.9-4.08-13.81-8.9-18-15.91-1.68-3.19-3.13-7.32-1.18-10.7z" fill="#e3b5ac" data-color="2"/>
        <path d="M25.88 64.95c10.28-3.26 21.25-1.74 31.74-.48-9.23 2.86-20.26 3.69-26.86 11.59 3.09 3.95 8.14 4.2 12.74 4.09-4.78 2.28-10.25 4.42-13.15 9.13-1.41 1.86-.75 5.02 1.7 5.5 4.88.99 9.51-1.44 13.84-3.37-1.03 2.7-1.98 5.43-2.85 8.19 2.73.71 5.76 1.38 8.3-.3C59.27 94.71 63.55 86.15 68 78.51c-.92 10.69-5 21.32-12.23 29.35-4.19 4.29-9.67 7.93-15.75 8.53-2.62-1.02-4.81-2.81-7.09-4.4-2.89.54-5.86 1.84-8.82 1.15-3.53-1.45-4.13-5.72-5.75-8.74-1.48-4.19-7.91-4.44-8.1-9.38-1.49-5.82 4.69-9.47 4.88-15.01.47-6.48 4.31-13.04 10.74-15.06z" fill="#e3b5ac" data-color="2"/>
        <path d="M64.56 102.65c2.68-5.33 4.78-10.95 7.63-16.2-.13 5.85-1.33 11.7-.72 17.56 0 2.03 2.37 3.55 4.19 2.64 1.77-.93 3.15-2.41 4.64-3.71 2.51.51 6.29 1.61 7.14-1.87.29-4.39-.97-8.69-1.34-13.03 4.09 4.17 8.6 8.05 11.83 12.97 1.43 2.21 2.55 5.36.9 7.74-2.19 1.8-5.28 1.9-7.6 3.48-1.51 3.37-1.28 8.06-4.96 10.04-2.95 1.88-5.72-1.03-8.46-1.88-3.13-.49-6.29.51-9.44.13-3.62-.6-6.7-3.81-6.9-7.52-.18-3.69 1.57-7.09 3.09-10.35z" fill="#e3b5ac" data-color="2"/>
        <path d="M152.34 52.71c-4.63-11.41 4.63-24.99 16.69-25.68 4.49-.04 10.34.35 12.85 4.7-3.3-.97-6.34-2.87-9.86-3.01-9.28-1.09-18.58 6.81-18.81 16.18-1.36 10 7.75 19.86 17.82 19.22 3.97.19 7.37-2.26 11.25-2.62-9.36 8.9-26.27 3.13-29.94-8.79z" fill="#514947" data-color="3"/>
        <path d="M317.37 27.73c3.71-.02 7.42-.02 11.14-.01-.04 8.74.07 17.49-.03 26.23.14 4.93-2.67 10.32-7.67 11.67-3.81 1.26-7.73-.3-10.98-2.25l-.2-1.94c3.06 1.9 6.65 3.87 10.36 2.68 4.42-.95 6.56-5.83 6.54-9.98.1-8.27-.01-16.55.03-24.83-3.08-.01-6.16-.01-9.23-.03l.04-1.54z" fill="#514947" data-color="3"/>
        <path d="M186.78 27.78l1.73-.04c-.04 6.21.12 12.42-.12 18.63 1.68-1.54 3.36-3.34 5.7-3.83 4.99-1.45 11.09 1.39 12.45 6.57 1.29 5.26.46 10.73.67 16.09-.47.01-1.41.04-1.88.05-.61-6.1 1.7-13.16-2.08-18.52-3.86-5.26-12.83-2.83-14.3 3.28-.97 5.01-.22 10.18-.43 15.25l-1.74-.04V27.78z" fill="#514947" data-color="3"/>
        <path d="M240.78 27.78l1.73-.04c0 8.74.02 17.48-.02 26.21.02 2.63-.05 5.61 1.8 7.71 1.73 1.76 4.18 2.51 6.15 3.96-4.61.48-9.37-2.85-9.51-7.68-.38-10.04-.03-20.11-.15-30.16z" fill="#514947" data-color="3"/>
        <path d="M256.63 39.42c2.68-2.86 5.55-6.11 9.61-6.82-2.83 2.73-5.74 5.67-9.61 6.82z" fill="#514947" data-color="3"/>
        <path d="M417.36 34.95c1.27-.08 2.54-.15 3.81-.19-.35.89-.72 1.77-1.1 2.66-1.3-.32-2.21-1.14-2.71-2.47z" fill="#514947" data-color="3"/>
        <path d="M211.23 54.02c-.36-7.34 7.59-13.52 14.63-11.53 3.14.59 5.5 2.86 7.54 5.16-.04-1.64-.06-3.27-.08-4.91l1.9.06c.02 7.22-.05 14.44.04 21.66-.42.35-1.27 1.04-1.69 1.39-.13-1.82-.22-3.65-.28-5.47-2.66 3.53-6.91 5.97-11.42 5.44-5.76-.65-10.88-5.87-10.64-11.8m8.93-9.78c-3.96 1.47-7.28 5.37-6.96 9.78-.39 5.36 4.66 10.33 9.97 10.11 5.47.39 10.08-4.78 10.11-10.06.06-6.5-6.76-12.1-13.12-9.83z" fill="#514947" data-color="3"/>
        <path d="M258.98 42.9c4.68-1.93 9.68.15 13.31 3.21-5.08 5.53-10.87 10.35-16.06 15.77 2.39 1.29 4.95 2.82 7.78 2.33 3.31-.37 5.77-2.87 8.64-4.31-3.04 8.02-15.1 7.66-19.43 1-4.99-5.99-1.57-15.85 5.76-18m-6.25 11.4c.2 2.3 1.32 4.37 2.29 6.42 5.08-4.65 9.82-9.67 14.7-14.52-2.14-1.07-4.31-2.45-6.81-2.31-5.48-.21-10.43 4.98-10.18 10.41z" fill="#514947" data-color="3"/>
        <path d="M277.17 46.01c.53-4.44 6.21-4.52 9.22-2.5-.08.75-.15 1.52-.22 2.28-1.95-1.86-4.4-2.3-6.9-1.32-.01.93-.04 2.78-.06 3.71 3.22 2.7 7.7 4.06 9.9 7.81 1.78 3.98-1.06 8.86-5.26 9.61-3.07 1.01-5.94-.77-8.26-2.59l-.2-2.56c1.8 1.79 3.74 4.09 6.59 3.74 2.91.16 6.01-2.11 5.84-5.22-.28-6.6-10.89-6.16-10.65-12.96z" fill="#514947" data-color="3"/>
        <path d="M334.13 51.26c1.37-6.22 8.35-10.49 14.51-8.73 2.99.61 5.26 2.8 7.18 5.05-.04-1.62-.06-3.23-.07-4.85l2.4.12c-.01 7.43-.01 14.87 0 22.3-.59.03-1.78.1-2.37.13-.02-1.67-.03-3.33-.02-4.99-2.72 3.98-7.74 6.54-12.56 5.27-6.25-1.23-10.81-8.08-9.07-14.3m9.04-7.1c-7.13 1.84-10.25 12.05-4.36 17.01 5.06 5.88 15.74 2.51 16.79-5.07 1.8-7.04-5.41-14.17-12.43-11.94z" fill="#514947" data-color="3"/>
        <path d="M363.49 46.96c-.35-4.83 5.73-5.79 9.01-3.67 0 .69 0 1.38.01 2.07-1.99-1.05-4.87-2.74-6.65-.45-1.85 2.21.99 4.38 2.75 5.41 3.31 1.79 6.41 4.08 7.96 7.63-.94 2.64-1.73 5.92-4.65 7.04-3.82 2.05-9.55.35-10.36-4.28 2.07 1.24 3.78 3.58 6.42 3.48 3.46.49 7.11-2.85 6.15-6.41-1.9-5.1-9.39-5.38-10.64-10.82z" fill="#514947" data-color="3"/>
        <path d="M382.37 44.99c2.61-1.39 5.39-3.54 8.53-2.63 2.38.46 3.83 2.57 5.35 4.26 1.64-1.72 3.28-3.81 5.81-4.18 4.44-1.37 9.45 1.98 9.91 6.6.59 5.11.07 10.28.29 15.42-.6.45-1.2.9-1.79 1.35-.32-5.28.12-10.58-.26-15.85-.16-2.83-2.21-5.77-5.17-6.07-3.68-.76-7.72 2.29-7.69 6.11-.2 5.09 0 10.18-.06 15.27h-1.94c-.08-5.11.13-10.23-.07-15.33-.02-3.27-2.92-6.45-6.31-6.1-3.35-.15-6.36 2.79-6.42 6.1-.16 5.11.02 10.21-.04 15.32l-1.95-.01V42.74l2 .02c-.05.56-.14 1.67-.19 2.23z" fill="#514947" data-color="3"/>
        <path d="M428.37 45.24c2.56-1.53 5.33-3.74 8.51-2.91 2.43.41 3.86 2.61 5.45 4.27 1.77-2.01 3.84-4.13 6.69-4.32 4.64-.95 9.18 3.1 9.21 7.73.19 5.09 0 10.18.05 15.28l-1.94-.04c-.06-5.12.14-10.23-.06-15.34.04-3.31-2.91-6.43-6.31-6.07-3.36-.14-6.28 2.79-6.54 6.05-.36 5.1-.05 10.21-.14 15.32l-1.72.1c-.09-5.08.17-10.17-.11-15.25-.06-2.97-2.37-6-5.45-6.16-3.78-.72-7.26 2.63-7.41 6.29-.26 5.02-.02 10.05-.09 15.07l-1.73-.04V42.77l1.8-.01c-.05.62-.15 1.86-.21 2.48z" fill="#514947" data-color="3"/>
        <path d="M418.56 42.74l1.73.01v22.5l-1.73.01V42.74z" fill="#514947" data-color="3"/>
        <path d="M197.43 82.16c1.32.68 1.31 1.34-.03 1.98-1.32-.69-1.31-1.35.03-1.98z" fill="#868079" data-color="4"/>
        <path d="M219.24 81.96c.31.03.95.08 1.27.1-.1 4.48.56 9.1-.81 13.45-.71-4.48-.46-9.03-.46-13.55z" fill="#868079" data-color="4"/>
        <path d="M224.46 82.43c1.63-.55 2.2-.02 1.72 1.6-1.63.56-2.2.03-1.72-1.6z" fill="#868079" data-color="4"/>
        <path d="M235.88 81.22c2.29 3.99 1 8.77 1.28 13.13-2.25.02-5.03 1.23-6.86-.64-1.74-2.18-1.67-6.07.75-7.73 1.41-.46 2.91-.3 4.36-.36.13-1.47.29-2.94.47-4.4m-5.29 6.13c-.02 1.63-.04 3.26-.05 4.89.72.52 2.14 1.54 2.86 2.06 2.4-1.78 2.59-4.84 1.53-7.43-1.46.07-2.9.28-4.34.48z" fill="#868079" data-color="4"/>
        <path d="M257.22 81.96c.33.03.98.08 1.3.1 0 4.11 0 8.22.05 12.33-2.31.01-5.23 1.15-6.97-.94-1.42-2.25-1.2-5.56.79-7.43 1.59-.38 3.24-.29 4.87-.35-.02-1.24-.03-2.47-.04-3.71m-4.82 4.7c-.03 2.13-.21 4.3.3 6.39 1.34.76 2.69.79 4.07.09.5-1.64.64-3.39.4-5.09-1.11-1.51-3.19-1.02-4.77-1.39z" fill="#868079" data-color="4"/>
        <path d="M323.6 81.11c.45 1.52.81 3.06 1.17 4.61 1.9.09 3.8.28 5.7.5.1 2.37.46 4.79-.11 7.12-1.73 2.28-4.77 1.07-7.15 1.08.02-4.44-.16-8.89.39-13.31m.89 6.34c0 1.83-.01 3.66-.01 5.49 1.48.28 3.08 1.08 4.5.08.76-1.88.65-3.97 0-5.85-1.49-.59-3.02-.01-4.49.28z" fill="#868079" data-color="4"/>
        <path d="M362.82 81.2c.61 1.45 1.15 2.93 1.69 4.42 4.3-1.27 7.38 3.4 5.26 7.09-1.15 3.11-4.85 1.7-7.3 1.67.03-4.39-.16-8.8.35-13.18m1.22 11.91c1.44.2 2.89.39 4.35.56.13-1.73.58-3.51.22-5.24-.09-2.16-2.52-1.56-3.97-1.83-.47 2.13-.49 4.33-.6 6.51z" fill="#868079" data-color="4"/>
        <path d="M466.76 83.67c-.13-1.94 3.85-1.88 3.69.04-.92.89-2.81.89-3.69-.04z" fill="#868079" data-color="4"/>
        <path d="M151.49 95.58c-.62-4.55-1.11-9.35.36-13.79.33 2.06.49 4.13.63 6.21h6.49c.27-2.1.54-4.19 1.02-6.25.72 4.53 1.04 9.29-.25 13.75-.33-2.15-.51-4.33-.66-6.5h-6.5c-.25 2.21-.54 4.42-1.09 6.58z" fill="#868079" data-color="4"/>
        <path d="M201.27 86.27c.6-1.19 1.21-2.39 1.82-3.58.13.69.41 2.08.55 2.77l2.52.48c-.92.48-1.84.95-2.76 1.43.06 1.82.12 3.64.2 5.46.85.88 1.71 1.77 2.55 2.67-1.25-.57-2.7-.84-3.73-1.79-.27-2-.21-4.03-.25-6.04-.22-.35-.68-1.05-.9-1.4z" fill="#868079" data-color="4"/>
        <path d="M310.84 92.29c-.79-3.48-.37-7.1.15-10.59 1.19 3.72 1.3 7.64 1.36 11.51 1.78.19 3.81.84 5.34-.46.81-3.62.28-7.42 1.28-11.02.62 3.55.92 7.25.27 10.81-1.59 3.37-7.03 3.09-8.4-.25z" fill="#868079" data-color="4"/>
        <path d="M344.56 86.15c.47-1.18.96-2.36 1.45-3.54.16.7.49 2.1.66 2.79.78.21 1.56.41 2.35.61-.65.32-1.95.95-2.6 1.26.07 1.88.14 3.76.22 5.64.98.83 1.94 1.67 2.91 2.53-1.26-.33-2.49-.73-3.69-1.19-.75-2.64-.84-5.41-1.3-8.1z" fill="#868079" data-color="4"/>
        <path d="M175.08 88.61c.54-4.4 6.2-3.6 8.04-.51-2-.54-3.99-1.24-6.08-1.33-.64 3.38 5.01 2.46 5.3 5.3.69 1.63-1.47 2.23-2.49 2.84-2.44.73-4.13-1.56-5.67-2.99 2.34.64 5.55 3.4 7.16.17-2.05-1.23-4.32-2.06-6.26-3.48z" fill="#868079" data-color="4"/>
        <path d="M185.43 86.19c2.25-.25 4.51-.47 6.78-.56 1.13 2.84 1.17 5.88.18 8.77-1.63.12-3.26.21-4.88.26-.57 1.38-1.13 2.76-1.72 4.12-.42-4.18-.31-8.39-.36-12.59m1.83.46c-.06 2.23-.09 4.46-.1 6.69 3.32 1.61 5.92-1.79 4.48-4.92-.3-2.17-2.85-1.36-4.38-1.77z" fill="#868079" data-color="4"/>
        <path d="M207.43 88.07c2.04-2.48 5.05-2.88 7.93-1.78.12 2.71.2 5.42.28 8.14-2.58 0-5.94 1.31-7.6-1.41-.54-3.77 4.44-3.47 6.78-4.39-1.69-3.04-4.87-1.11-7.39-.56m.83 3.87c1.08.67 2.2 1.25 3.37 1.75 2.09.21 2.23-2.46 3.18-3.65-2.24.45-4.42 1.09-6.55 1.9z" fill="#868079" data-color="4"/>
        <path d="M239.35 88.07c2.12-2.39 5.1-3.02 8.01-1.75.11 2.68.19 5.37.26 8.06-2.74.2-7.08 1.52-7.81-2.31 1.01-2.89 4.64-2.51 6.97-3.46-1.71-3.05-4.87-1.06-7.43-.54m.91 3.88c.74.41 2.22 1.24 2.95 1.65 2.2.6 2.7-2.05 3.8-3.29-2.35.06-4.61.71-6.75 1.64z" fill="#868079" data-color="4"/>
        <path d="M263.32 86.24c1.45-.79 3.19-.52 4.79-.67.55 1.56 1.11 3.11 1.66 4.66-2.47.09-4.95.19-7.41.36 1.29 3.54 4.72 3.16 7.77 2.88-2.07.49-4.48 2.43-6.47.78-2.89-1.56-2.8-6.09-.34-8.01m-1.16 2.83c2.21.13 4.42.18 6.63.14-.88-.98-1.81-1.91-2.78-2.78-1.39.71-2.63 1.68-3.85 2.64z" fill="#868079" data-color="4"/>
        <path d="M279.58 94.32c-4.01-1.99-2.44-9.37 2.29-8.83 2.61-.01 2.97 2.96 4 4.74-2.25.07-4.49.12-6.72.15.03.73.1 2.18.13 2.9 2.14.18 4.28.15 6.42.15-1.96.56-4.17 2.41-6.12.89m-1.37-5.21c2.14.11 4.3.15 6.45.1-1.15-.92-2.02-2.67-3.72-2.55-.96.77-1.87 1.58-2.73 2.45z" fill="#868079" data-color="4"/>
        <path d="M288.17 85.97c1.57-.14 3.15-.3 4.72-.46.49.22 1.48.65 1.97.86 2.15-.65 4.36-.68 6.54-.13-.01 3.13.1 6.34-.89 9.35-.5-2.97-.55-5.98-.7-8.98-1.22.18-2.43.42-3.63.71-.91 2.61-.56 5.48-1.06 8.19-1.55-2.68-1.09-5.86-1.29-8.81-1.4.25-2.8.52-4.19.81-.11 2.69-.1 5.43-.91 8.03-.54-3.16-.54-6.37-.56-9.57z" fill="#868079" data-color="4"/>
        <path d="M333.13 88.07c1.63-1.45 3.76-3.47 6.14-2.29 3.36 1.41 1.55 5.87 2.07 8.68-2.46.01-5.25 1.02-7.36-.71-1.57-3.82 3.33-4.22 5.72-5.1.03-3.66-4.55-.66-6.57-.58m2.02 2.89c.13.76.39 2.28.51 3.03 2.3-.25 4.21-1.31 4.68-3.76-1.74.22-3.47.46-5.19.73z" fill="#868079" data-color="4"/>
        <path d="M372.28 88.06c2.1-2.49 5.12-3.02 8.02-1.66.03 2.66.09 5.31.2 7.97-2.59.19-5.84 1.33-7.58-1.36-.43-3.7 4.41-3.46 6.77-4.38-1.72-3.03-4.89-1.14-7.41-.57m.96 3.92c.73.39 2.18 1.18 2.91 1.57 2.23.9 2.85-2.2 3.28-3.63-2.1.57-4.16 1.28-6.19 2.06z" fill="#868079" data-color="4"/>
        <path d="M389.43 86.19c2.24-.25 4.49-.47 6.76-.56.57 2.24 1.57 4.57.98 6.92-.98 2.22-3.6 2.3-5.67 2.2-.57 1.34-1.14 2.69-1.73 4.02-.39-4.18-.29-8.38-.34-12.58m1.84.45c-.07 2.24-.1 4.48-.1 6.73 3.38 1.64 5.97-1.94 4.46-5-.36-2.11-2.86-1.33-4.36-1.73z" fill="#868079" data-color="4"/>
        <path d="M399.36 88.06c2.11-2.39 5.09-3.01 8-1.74.11 2.69.19 5.39.27 8.09-2.68.11-5.93 1.22-7.78-1.39-.06-3.74 4.46-3.49 6.94-4.4-1.73-3.03-4.9-1.1-7.43-.56m.87 3.92l3.88 1.88c1.24-.95 2.2-2.16 2.88-3.62-2.36.15-4.61.82-6.76 1.74z" fill="#868079" data-color="4"/>
        <path d="M411.18 85.92c1.66-.13 3.33-.29 5-.45-1.13.86-2.32 1.66-3.32 2.68-.46 2.44-.51 4.96-1.14 7.38-.53-3.18-.54-6.4-.54-9.61z" fill="#868079" data-color="4"/>
        <path d="M416.97 88.07c1.8-2.34 4.59-2.74 7.34-2.4.44 2.87.8 5.76 1.12 8.65-1.79.16-3.58.45-5.38.44-1.75-.06-3.54-2.36-2.09-3.88 1.65-1.57 4.22-1.56 6.23-2.45-1.92-2.63-4.74-.98-7.22-.36m2.76 2.73c-.3 1.05-.55 2.12-.73 3.21 2.32-.3 4.52-1.24 5.28-3.69-1.53.1-3.06.13-4.55.48z" fill="#868079" data-color="4"/>
        <path d="M455.48 86.47c1.64-1.53 3.94-.6 5.86-.32l.52 2.83c-1.28-.89-2.53-1.83-3.91-2.55-2.73.87-2.38 3.88-2.76 6.16 2.44 1.67 5.01.47 7.46-.46-1.54 1.23-3.23 3.65-5.49 2.64-3.42-1-3.99-5.96-1.68-8.3z" fill="#868079" data-color="4"/>
        <path d="M468.26 85.48c2.86-.46 3.72 2.66 4.6 4.71-2.54.12-5.1.23-7.63.41 1.25 3.49 4.58 3.15 7.59 2.85-1.97.6-4.24 2.34-6.23.88-3.62-1.93-2.72-8.66 1.67-8.85m-1.35.88c-.25.75-.76 2.23-1.01 2.97 1.95-.05 3.89-.13 5.85-.27-1.38-1.3-3.04-2.17-4.84-2.7z" fill="#868079" data-color="4"/>
        <path d="M166.41 94.47c-4.06-1.65-3.17-9.08 1.56-8.95 3.95-.49 4.42 4.11 4.76 6.92-1.87 1.21-3.94 3.56-6.32 2.03m-.2-7.08c-1.57 1.46-1.43 5.6 1.18 6.23 2.09.83 4.1-1.66 3.64-3.66.39-2.63-2.85-4.36-4.82-2.57z" fill="#868079" data-color="4"/>
        <path d="M196.73 86.1l1.55.08c-.02 2.75-.02 5.5-.02 8.25-.38 0-1.14.01-1.52.01 0-2.78 0-5.56-.01-8.34z" fill="#868079" data-color="4"/>
        <path d="M224.45 94.62c0-3.3-.02-6.62.51-9.89 1.18 3.01 1.28 6.25 1.3 9.43-.45.12-1.35.34-1.81.46z" fill="#868079" data-color="4"/>
        <path d="M351.36 85.92l1.74.59c.11 2.92-.82 8.94 3.99 6.62.46-2.78.49-5.62.93-8.4.91 3.06 1.23 6.25 1.3 9.43-1.73.26-3.45.54-5.16.82-.57-.32-1.71-.96-2.29-1.28-.24-2.59-.39-5.18-.51-7.78z" fill="#868079" data-color="4"/>
        <path d="M433.16 84.9c1.9 2.24 2.96 5.01 3.8 7.81 1.08-2.69 2.14-5.43 3.9-7.77-.59 3.7-2.12 7.14-3.83 10.43-1.59-3.37-3.07-6.82-3.87-10.47z" fill="#868079" data-color="4"/>
        <path d="M444.48 86.56c2.33-2.29 6.93-.8 7.01 2.62 1 3.02-1.97 6.75-5.14 5.57-3.55-.75-4.45-5.93-1.87-8.19m.89.92c-2.62 1.99-.08 7.53 3.13 6.05 3.9-1.97.83-9.46-3.13-6.05z" fill="#868079" data-color="4"/>
    </g>
</svg>
