<?xml version="1.0" encoding="UTF-8"?>
<svg data-bbox="7.19 4.059 600.24 304.941" xmlns="http://www.w3.org/2000/svg" viewBox="0 0 613 309" height="412" width="613pt" data-type="color">
    <g>
        <path d="M312.55 14.38c6.73-.69 8.62-9.6 15.37-10.25 5.44-.68 9.37 3.66 13.35 6.59 3.5 2.94 9.09-1.96 12.15 1.82 2.98 5.05 1.62 11.5 4.49 16.62 1.54 2.78 3.99 5.36 3.74 8.78 1.14 12.12-7.16 22.54-16.12 29.65-5.38 3.94-10.85 8.23-17.38 10.01 4-6.36 10.82-10.17 15.52-15.96 3.01-3.52 6.22-8.22 4.75-13.05-2.02-2.26-5.34-2.23-8.07-2.93.13-5.23.63-10.99-2.47-15.54-1.51-2.47-5.19-3.56-7.53-1.63-2.73 2.45-2.55 6.78-5.36 9.15-2.84-1.47-3.18-6.41-7.01-6.11-3.8.22-5.3 4.28-5.87 7.46-1.13 6.99-1.27 14.09-2.13 21.12a9.844 9.844 0 0 1-1.47 4.33c-3.28-9.56-5.11-19.54-7.39-29.37-1.45-5.95-1.11-12.56 2.04-17.93 1.92-3.32 6.21-2.3 9.39-2.76z" fill="#e3b5ac" data-color="1"/>
        <path d="M255.12 17.09c2.13-3.68 6.99-3.86 10.74-3.39 8.38 1 15.29 6.69 20.32 13.13 7.58 9.72 12.31 21.32 15.53 33.13.59 2.28.8 4.62 1.03 6.95-3.75-9.6-8.15-19.78-16.73-26.04-2.9-2.06-7.86-4.14-10.4-.49-1.49 3.94.54 7.92 2.28 11.39-7.82-4.76-15.96-9.31-24.89-11.57-2.64-.48-5.95-1.39-8.18.62-1.31 1.95-.82 4.85.79 6.52 2.92 3.36 6.68 5.86 9.61 9.22-4.31.09-9.56.62-11.88 4.84-1.74 2.71-.03 6.3 2.72 7.5 9.67 4.83 20.96 4.1 30.86 8.28 5.3 2.28 10.86 4.88 14.55 9.48-17.64.65-35.66 1.25-52.9-3.19-7.42-2.03-15.65-5.6-18.71-13.24-1.13-4.42-.76-9.25.87-13.5 1.15-3.22 3.58-5.75 4.93-8.86-.07-4.67-2.28-9.15-1.58-13.89.1-4.09 3.09-7.69 6.89-9 5.97-2.19 12.42-1.03 18.61-1.58 2.97-.74 3.85-4.14 5.54-6.31z" fill="#e3b5ac" data-color="1"/>
        <path d="M368.63 59.55c3.59-1.14 8.62-1.75 11.03 1.86 2.87 3.55 3.09 8.23 2.98 12.58-.25 5.93 5.74 9.48 6.94 14.97.02 4.63-3.55 8.31-7.6 10.03-5.8 2.21-2.94 10.02-7.21 13.65-3.63 4.55-10.02 1.97-14.68 4.36-3.05 1-5.76 3.8-9.17 3.04-9.54-1.32-19.26-7.26-22.06-16.93 6.67 2.77 13.31 7.91 20.89 6.58 3.88-.86 3.29-5.33 4.73-8.09 3.66-2.45 8.62-.55 12.52-2.59 2.86-1 4.57-4.4 3.34-7.24-1.53-3.04-5.74-2.67-7.79-5.03.1-2.61 2.21-6.61-1.54-7.48-9.43-1.18-18.07 4.32-27.36 5.02 3.12-4.11 7.28-7.24 11.26-10.47 7.27-5.67 14.91-11.24 23.72-14.26z" fill="#e3b5ac" data-color="1"/>
        <path d="M306.79 89.05c.77-4.43 7.16-6.3 10.09-2.86 1.57 3.34 2 7.09 3.37 10.52 3.5 9.52 8.24 19.25 16.61 25.42 6.54 4.44 15.12 8.01 22.83 4.29.02 1.38.05 2.76.09 4.14 1.73-.61 3.42-1.35 5.01-2.26.48 2.11-.18 6.37 3.25 5.72 3.87-.57 4.1-5.29 5.24-8.24.36 1.77.72 3.53 1.09 5.3 5.79.7 4.09-7.6 9.02-8.49-.36 2.89-1.61 5.59-1.97 8.47.84 1.58 2.99 1.45 4.35.71 1.62-1.81 2.43-4.18 4.01-6.03 2.62-1.79 6.66 1.15 6.27 4.1-3.77 2.8-10.87 1.1-12.2 6.89 2.06.43 4.18.68 6.18 1.38 3.07.9 2.34 6.43-1 6.33-3.32-.7-5.21-5.16-9.03-4.39-2.69.68-1.49 4.31-2.1 6.29-2.76-1.68-2.91-5.77-5.95-6.98-3.17 1.24-.71 6.7-4.62 6.93-.56-1.94 1.1-6.38-2.28-5.61-1.19 1.09-2.15 2.38-3.18 3.61-.62-1.87-1.2-3.76-1.7-5.66-.91-.12-1.82-.24-2.72-.37-.27 1.66-.56 3.32-.88 4.97-2.4-2.09-.17-6.05-2.85-7.93-4.06-3.26-9.08-4.94-13.62-7.41-10.53-5.57-20.86-12.23-28.29-21.72-3.65-4.8-6.4-11.01-5.02-17.12z" fill="#e3b5ac" data-color="1"/>
        <path d="M243.26 93.31c14.53-4.44 29.93-2.06 44.74-.65-9.27 2.69-18.87 4.47-27.7 8.52-2.87 1.37-5.91 2.68-8.11 5.05-1.83 1.9-.96 5.21 1.2 6.49 4.06 2.83 9.28 2.02 13.94 2.29-6.51 3.56-14.03 6.45-18.17 13.01-1.88 2.73-.91 7.56 2.79 8.04 6.82 1.08 13.18-2.27 19.25-4.87-1.33 3.69-3.9 7.4-2.83 11.49 2.38 2.06 5.9 1.46 8.61.47 6.53-2.72 11.26-8.29 15.37-13.82 4.02-5.4 7.25-11.32 10.35-17.27-.26 7.71-2.71 15.15-5.3 22.35-4.69 11.77-12.34 23.19-23.99 28.97-3.28 1.48-6.66 3.23-10.33 3.31-3.11-.67-5.38-3.11-7.93-4.84-4.45-3.77-10.04 2.55-15.03.07-5.33-2.41-6-8.95-8.42-13.63-1.38-3.73-5.87-4.09-8.48-6.57-2.82-3.21-3.56-7.91-2.46-11.97 1.21-3.74 4.59-6.27 5.95-9.93 1.19-4.16.94-8.64 2.51-12.71 2.57-6.22 7.33-11.94 14.04-13.8z" fill="#e3b5ac" data-color="1"/>
        <path d="M303.81 133.71c1.38-3.1 2.34-6.44 4.4-9.18.06 8.5-1.72 17-.73 25.51.49 2.26 3.27 3.67 5.42 2.86 3.15-.85 5.01-3.72 6.97-6.08 1.95.78 3.88 1.92 6.04 1.94 3.03-.48 4.78-3.89 4.45-6.74-.55-5.16-2.26-10.15-2.18-15.38 3.01 2.01 5.15 4.98 7.74 7.46 4.16 4.24 8.35 8.7 10.76 14.2 1.39 2.87.58 6.57-1.84 8.62-2.7 1.71-6.14 1.54-8.94 3-1.92 1.41-1.45 4.12-2.08 6.15-.73 4.49-3.78 9.57-8.78 9.88-3.63.41-5.73-3.43-9.04-4.16-3.73-.15-7.35 1.15-11.09.99-5.17-.08-10.09-3.85-11.38-8.87-.6-3.42-.37-7.05 1.13-10.23 2.95-6.7 6.22-13.26 9.15-19.97z" fill="#e3b5ac" data-color="1"/>
        <path d="M328.52 189.27c4.65-.67 9.37-.02 14.04.21-.1 9.84-.39 19.67-.3 29.51 0 5.26-.49 11.03-3.97 15.27-3.61 4.52-10.22 5.82-15.55 3.96-2.62-.89-5.63-2.39-5.86-5.51 2.78 1.05 5.03 3.26 7.98 3.88 4.7 1.25 10.15-.89 12.54-5.17 3-4.93 1.84-10.93 2.31-16.39-.1-7.92.58-15.83.25-23.74-4.13.11-8.27.07-12.37-.45.23-.39.69-1.18.93-1.57z" fill="#645d53" data-color="2"/>
        <path d="M217.67 192.47c.6.14 1.79.4 2.38.53.99 11.67 1.89 23.35 2.61 35.05.19 3.85 1.28 8.37 5.12 10.12 1.8 1.1 5.66.21 4.94 3.36-3.66-.39-7.58-1.45-9.93-4.49-2.11-2.53-2.23-5.98-2.49-9.1-.86-11.82-1.88-23.64-2.63-35.47z" fill="#645d53" data-color="2"/>
        <path d="M241.94 205.62c3.11-3.51 6.36-7.89 11.24-8.76-3.27 3.32-6.33 8.04-11.24 8.76z" fill="#645d53" data-color="2"/>
        <path d="M141.35 202.1c-.71-2.03 3.01-1.18 2.71.45.43 7.26 1.87 14.4 2.57 21.62 2.97-3.22 6.66-6.41 11.34-6.25 6.21-.65 12.45 3.93 13.57 10.09 1.11 5.99 1.7 12.07 2.41 18.12-.62-.06-1.85-.17-2.46-.22-.85-6.22-1.28-12.53-2.7-18.66-1.86-6.6-10.7-9.61-16.18-5.46-3.43 2.44-5.6 6.8-4.79 11.03.65 5.54 1.75 11.04 2.01 16.63-.56-.01-1.67-.02-2.22-.02-2.01-15.79-4.35-31.54-6.26-47.33z" fill="#645d53" data-color="2"/>
        <path d="M95.13 231.09c-1.41-12.61 8.38-25.17 20.88-27.08 4.64-.59 9.62-.56 13.94 1.44.16.58.47 1.73.63 2.3-5.1-1.68-10.64-2.84-15.93-1.27-11.66 2.8-19.71 15.87-16.56 27.53 2.23 10.76 13.05 18.86 23.99 18 5.32-.19 10.01-2.91 14.19-5.97 2.23-.04.83 2.19-.21 2.88-5.81 4.68-13.75 6.09-20.97 4.68-10.35-2.49-19.34-11.6-19.96-22.51z" fill="#645d53" data-color="2"/>
        <path d="M275.39 208.48c2.81-1.21 5.66.35 7.83 2.07v2.1c-1.97-1.1-4-2.11-6.12-2.87-1.94 1.07-4.67 2.58-3.51 5.28 3.22 5.05 10.75 5.35 13.45 10.95 2.45 5-.96 11.17-6.19 12.49-3.98 1.47-8.32-.25-11.1-3.23-.04-1.01-.09-2.03-.13-3.04 2.39 2.64 5.56 5.61 9.46 4.62 3.98-.57 7.54-4.64 6.08-8.74-2.42-6.25-11.19-6.22-13.8-12.33-1.29-3.13.94-6.49 4.03-7.3z" fill="#645d53" data-color="2"/>
        <path d="M362.07 209.98c5.68-2.05 12.53-.08 16.47 4.45.85.86 1.04 2.86 2.14 3.18.37-2.27.03-4.59.06-6.88.64.01 1.93.01 2.57.01-.71 9.74-.9 19.5-1.58 29.24-.6.02-1.79.05-2.39.07.11-2.29.18-4.58.29-6.87-3.01 4.44-8.23 7.24-13.63 6.83-7.39-.38-14.11-6.68-14.55-14.14-.83-6.96 4.05-13.8 10.62-15.89m1.45 1.78c-5.37 1.54-9.55 6.6-9.71 12.25-.57 7.28 6.01 14.04 13.24 13.99 7.68.22 14.28-7.51 13.04-15.07-.78-7.62-9.09-13.77-16.57-11.17z" fill="#645d53" data-color="2"/>
        <path d="M472.41 209.36c2.76-.9 3.29 3.98.54 3.63-2.1.37-2.94-3.55-.54-3.63z" fill="#645d53" data-color="2"/>
        <path d="M236.41 218.42c4.15-9.72 18.87-12.45 25.69-4.11-6.5 6.99-13 13.98-19.26 21.18 2.91 1.42 5.99 3.02 9.34 2.49 4.31-.34 7.47-3.53 10.46-6.3.08.79.25 2.37.33 3.16-3.27 3.03-7.4 5.58-12.05 5.23-10.68.68-19.55-11.93-14.51-21.65m1.32 8.95c.47 2.43 1.91 4.46 3.39 6.38 6.09-6.3 11.71-13.02 17.76-19.36-2.85-1.95-6.26-3.32-9.77-2.92-7.32.81-13.24 8.63-11.38 15.9z" fill="#645d53" data-color="2"/>
        <path d="M393.06 218.02c-1.19-4.99 5.06-8.46 9.16-6.27 1.89.6 2.83 2.4 3.63 4.07-2.61-.04-4.18-2.78-6.81-2.7-2.14.29-4.52 2.41-3.51 4.73 1.48 3.26 5.08 4.68 7.72 6.84 3.5 2.37 6.38 7.06 4.21 11.24-2.32 6.6-11.88 8.05-16.54 3.11-1.51-1.17-1.34-3.21-1.66-4.89 2.02 2.15 3.85 4.89 6.93 5.57 4.54 1.4 10.47-2.55 9.36-7.61-1.56-6.67-10.61-7.61-12.49-14.09z" fill="#645d53" data-color="2"/>
        <path d="M206.98 212.71l2.21.2c1.62 9.61 1.94 19.42 3.21 29.09-.65 0-1.94.01-2.59.01-.15-2.24-.21-4.49-.22-6.73-2.77 4.93-7.75 8.93-13.63 8.86-9.17.8-17.52-8.21-16.06-17.28.99-8.02 8.95-14.42 17.02-13.36 4.29.35 8.37 2.63 10.78 6.22-.29-2.34-.52-4.67-.72-7.01m-16.63 3.81c-5.08 2.29-8.77 7.91-8.04 13.57.37 6.81 7.02 12.29 13.72 11.96 7.61.23 13.68-7.72 12.43-15.03-.69-8.27-10.59-14.08-18.11-10.5z" fill="#645d53" data-color="2"/>
        <path d="M418.74 213.51c.84.07 1.69.14 2.54.2-.06.8-.17 2.39-.23 3.18 2.44-1.45 5.02-3.17 8.01-2.95 4.36-.21 7.83 3.28 9.31 7.1 1.91-1.94 3.94-4.06 6.71-4.66 5.18-1.49 11.36 1.45 13.03 6.67.83 3.57.13 7.25-.3 10.83-.63 4.31-.66 8.72-1.7 12.97-.54.1-1.62.29-2.16.39.47-6.78 1.64-13.5 2.08-20.29.41-4.6-3.49-8.79-8.04-8.96-4.23.13-8.29 3.59-8.71 7.87-.87 6.37-1.58 12.77-2.15 19.17-.64-.1-1.91-.31-2.55-.42.77-6.54 1.68-13.07 2.17-19.64.36-4.39-3.18-8.97-7.73-9-4.54-.39-8.63 3.57-8.93 8.02-.77 6.11-1.64 12.23-1.87 18.39-.92.13-1.83.26-2.73.4 1.03-9.77 2.23-19.51 3.25-29.27z" fill="#645d53" data-color="2"/>
        <path d="M470.37 219.92c.6.02 1.82.07 2.43.09-.99 9.57-3.06 19.03-3.61 28.63l-2.87.3c1.28-9.68 2.84-19.33 4.05-29.02z" fill="#645d53" data-color="2"/>
        <path d="M478.95 250.33c1.48-9.6 2.92-19.28 5.04-28.76 3.12-1.16 1.68 2.54 1.33 3.99 3.35-2.65 8.18-4.26 12.2-2.13 2.78 1.27 4.32 4.04 5.38 6.77 3.99-5.22 12.6-6.26 17.13-1.22 3.47 3.33 2.73 8.6 1.94 12.86-1.1 4.98-1.43 10.13-2.87 15.03l-2.13.36c.8-6.8 2.37-13.48 3.26-20.27.63-4.35-2.81-8.87-7.24-9.2-4.15-.31-8.65 2.48-9.38 6.75-1.38 6.59-2.22 13.28-3.56 19.87-.47-.22-1.42-.67-1.89-.9.27-6.91 2.38-13.63 3.02-20.51.06-3.34-2.15-6.52-5.17-7.86-4.54-2.16-10.44 1.2-11.38 6.04-1.41 6.45-2.05 13.04-3.56 19.47-.53-.07-1.59-.21-2.12-.29z" fill="#645d53" data-color="2"/>
        <path d="M134.79 276.14c.61-.01 1.82-.01 2.42-.02-.01 8.59-.02 17.17.01 25.75-.61 0-1.83 0-2.43-.01.02-8.57.01-17.15 0-25.72z" fill="#645d53" data-color="2"/>
        <path d="M164.79 276.13h2.42c-.04 8.7.04 17.4-.04 26.11-1.29-.23-2.27-.92-2.86-2.07-2.62 2.44-7.08 2.91-9.69.21-2.87-2.66-2.65-6.91-2.31-10.47.25-3.42 3.17-6.48 6.68-6.51 2.28-.34 4.15 1.16 5.9 2.38-.12-3.22-.1-6.43-.1-9.65m-7.31 9.53c-4.03 2.15-3.68 7.7-2.63 11.45 1.23 4.26 8.04 4.45 9.71.48.46-2.78.35-5.65.14-8.45-.25-3.3-4.51-4.83-7.22-3.48z" fill="#645d53" data-color="2"/>
        <path d="M205.35 276.05c.54.01 1.63.03 2.17.05-.2 8.44.12 16.9-.13 25.33-.36.25-1.08.73-1.44.98-.19-.57-.56-1.72-.75-2.29-3 2.69-8.28 3.01-10.72-.57-2.69-4.21-2.63-10.42.7-14.27 2.8-2.89 7.31-2.07 10.25.15-.04-3.13-.03-6.26-.08-9.38m-9.15 11.27c-2.03 3.57-2.17 8.73.7 11.88 2.6 2.38 6.18.97 8.46-1.08 0-3.08.22-6.17-.07-9.24-.8-4.01-6.94-5.08-9.09-1.56z" fill="#645d53" data-color="2"/>
        <path d="M328.61 275.98c.53.04 1.58.13 2.11.17-.06 3.01-.06 6.01-.09 9.02 2.83-1.22 6.12-2.75 9.09-.99 3.67 2.12 4.06 6.96 3.67 10.76-.21 3.47-2.67 7.16-6.43 7.29-2.32.41-4.32-1-6.27-2-.04.52-.13 1.56-.17 2.07l-1.78-.58c-.35-8.57-.05-17.16-.13-25.74m5.76 9.41c-4.64 1.27-3.86 6.78-3.69 10.46-.09 4.76 7.47 6.37 9.56 2.24 1.58-3.21 1.62-7.21.09-10.45-1.06-2.16-3.78-2.85-5.96-2.25z" fill="#645d53" data-color="2"/>
        <path d="M402.18 276.07c.52-.03 1.56-.1 2.08-.13.01 3.29.03 6.57-.07 9.86 2.23-1.83 5.17-3.19 8.05-2.01 3.81 1.23 4.78 5.68 4.92 9.22-.06 3.81-1.8 8.67-6.15 9.16-2.47.63-4.7-.72-6.62-2.07-.06.48-.18 1.46-.23 1.95-.5-.03-1.48-.08-1.97-.1.02-8.63.04-17.26-.01-25.88m4.1 10.14c-3.17 2.19-1.81 6.57-2 9.81-.04 4.43 6.88 6.1 9.2 2.49 1.8-2.66 1.43-6.2 1.01-9.21-.58-3.69-5.34-5.38-8.21-3.09z" fill="#645d53" data-color="2"/>
        <path d="M595.07 281.16c1.48-1.79 2.73-4.07 4.95-5.01 2.28.64 3.41 3.12 4.97 4.75-.55-.09-1.64-.26-2.19-.35-.91-.87-1.82-1.72-2.72-2.57-1.43 1.41-3.01 2.71-5.01 3.18z" fill="#645d53" data-color="2"/>
        <path d="M7.23 277.18c.56.02 1.68.06 2.25.09-.02 3.72-.02 7.45-.01 11.17 4.64.04 9.28.04 13.92.02.01-3.72.01-7.44-.01-11.16.57-.02 1.71-.06 2.28-.09.04 8.25-.05 16.5.05 24.76l-2.37-.04c.09-3.92.12-7.83-.05-11.73-4.62.1-9.23.03-13.85.13.03 3.9.03 7.81.02 11.71l-2.27-.08c.05-8.26-.03-16.52.04-24.78z" fill="#645d53" data-color="2"/>
        <path d="M93.14 277.12l2.58.04-.12 2.47c-.57.03-1.72.07-2.29.09-.04-.65-.12-1.95-.17-2.6z" fill="#645d53" data-color="2"/>
        <path d="M144.23 277.33c1.65-1.33 2.57 1.05 2.45 2.34-1.38.57-4.74-1.09-2.45-2.34z" fill="#645d53" data-color="2"/>
        <path d="M304.57 277.37c.52-.04 1.56-.13 2.08-.17.15 5.93-.23 11.87.16 17.78.2 6.4 10.78 7.51 12.61 1.61.91-6.3.04-12.69.45-19.02.56-.02 1.7-.07 2.26-.09.01 6.15.41 12.36-.23 18.48-1.26 8.37-15.51 8.41-17.08.24-.56-6.25-.04-12.56-.25-18.83z" fill="#645d53" data-color="2"/>
        <path d="M103.49 278.57c2.89.14 1.79 3.08 2.03 4.96 1.48.19 2.96.41 4.44.67-1.3 1-2.95 1.1-4.51 1.33.02 4.63.06 9.25-.06 13.88 1.53.55 3.09 1.04 4.63 1.57-1.85 2.53-6.5 1.18-6.55-2.02-.23-4.48.01-8.97-.08-13.46-1.41-.24-2.96-.27-4.05-1.36 1.36-.22 2.72-.41 4.08-.56.01-1.67.02-3.34.07-5.01z" fill="#645d53" data-color="2"/>
        <path d="M370.53 278.52c2.82.26 1.77 3.08 1.98 4.96 1.52.24 3.25.21 4.4 1.43-1.48.21-2.97.38-4.46.53.11 4.53-.2 9.07.15 13.59 1.45 1.1 3.21 1.74 4.67 2.85-2.35.55-5.92.74-6.63-2.25-.59-4.68-.09-9.42-.25-14.13-1.43-.22-2.98-.26-4.04-1.41 1.34-.19 2.69-.36 4.05-.52.03-1.68.05-3.37.13-5.05z" fill="#645d53" data-color="2"/>
        <path d="M74.8 285.47c2.06-1.33 4.45-2.66 6.99-1.9 3.83.67 5.54 4.91 5.57 8.41.3 3.68-.85 8.06-4.47 9.73-2.91 1.36-5.92-.29-8.53-1.5.09 2.92.11 5.86.12 8.79h-2.2c.53-8.49-.45-17.04.45-25.5.52.49 1.55 1.47 2.07 1.97m1.6.85c-3.11 2.2-1.72 6.5-1.91 9.73-.1 4.46 6.98 6.14 9.23 2.42 2.01-3.31 2.06-7.73.21-11.12-1.6-2.48-5.32-2.91-7.53-1.03z" fill="#645d53" data-color="2"/>
        <path d="M93.43 283.73c.5 0 1.51-.02 2.02-.03.05 6.06-.05 12.13.07 18.19-.54.02-1.62.05-2.17.07.1-6.07 0-12.15.08-18.23z" fill="#645d53" data-color="2"/>
        <path d="M113.91 289.1c.71-6.26 10.6-7.96 13.45-2.5 1.6 5.12.51 10.6.97 15.88a9.851 9.851 0 0 1-2.98-2.17c-2.88 2.03-7.2 3-10.04.38-2.72-2.09-1.72-6.59 1.12-8.03 2.91-1.56 6.33-1.29 9.51-1.56.05-2.64-.69-5.87-3.91-5.96-3.65-.99-5.08 3.2-8.12 3.96m2.52 5.99c-.17 1.31-.29 2.64-.34 3.97 2.48 1.52 5.71 1.96 8.1 0 2.02-1.32 1.48-3.98 1.78-6.03-3.24.02-7.08-.61-9.54 2.06z" fill="#645d53" data-color="2"/>
        <path d="M214.03 297.98c-2.44-5.32-.61-13.9 6.19-14.57 5.36-.71 8.74 4.85 8.09 9.65-4.46-.07-8.92-.11-13.38.04.34 3.05 1.74 6.47 5.08 7.21 2.78.91 5.21-1.01 7.46-2.34.34 2.94-3.07 4.14-5.46 4.3-3.23.28-6.45-1.44-7.98-4.29m1.05-6.8c3.75.04 7.49.04 11.23-.01-.62-2.37-1.33-5.33-4.16-5.87-3.72-1.08-6.58 2.55-7.07 5.88z" fill="#645d53" data-color="2"/>
        <path d="M262.55 283.21c.92.55 1.78 1.2 2.47 2.04 3.35-2.32 8.36-2.85 10.99.86 3.22-3.54 10.84-4.14 12.1 1.48.28 4.71.31 9.47-.01 14.18-.47.12-1.41.38-1.88.5-.18-4.72.33-9.47-.25-14.17-1.09-4.67-8.53-3.3-9.38.89-.35 4.28-.07 8.58-.05 12.87-.59.05-1.76.14-2.35.18-.1-4.64.29-9.3-.16-13.92-1.15-4.7-8.42-3.34-9.42.85-.38 4.28-.08 8.59-.08 12.89-.54.03-1.63.1-2.17.13.14-6.26-.13-12.52.19-18.78z" fill="#645d53" data-color="2"/>
        <path d="M422.02 288.98c.98-6.62 12.02-7.83 13.99-1.32.62 4.82-.05 9.73.51 14.57-1.28-.19-2.29-.79-2.76-2.03-2.84 1.94-6.86 3.09-9.86.85-2.31-1.33-2.05-4.45-1.34-6.62 2.81-3.55 7.82-3.01 11.85-3.34-.14-2.98-1.64-6.53-5.25-6.01-3.24-.39-4.16 3.66-7.14 3.9m2.32 6.37c-1.45 3.55 2.47 6.14 5.61 4.84 3.39-.6 4.77-4.1 4.38-7.2-3.38.11-7.6-.63-9.99 2.36z" fill="#645d53" data-color="2"/>
        <path d="M454.7 285.62c1.83-1.31 3.95-2.6 6.32-2.18 3.73.23 6.12 3.98 6.29 7.45.5 3.82-.31 8.36-3.82 10.58-2.99 1.76-6.36.07-9.13-1.27.09 2.93.11 5.87.12 8.8h-2.22c.61-8.48-.52-17.04.53-25.47.48.52 1.43 1.57 1.91 2.09m1.71.68c-2.87 1.95-1.81 5.8-1.98 8.73-.82 4.64 5.71 7.22 8.82 4.15 2.43-3.08 2.57-7.58 1.09-11.11-1.22-3.03-5.51-3.78-7.93-1.77z" fill="#645d53" data-color="2"/>
        <path d="M472.17 288.51c1.82-5.72 11.16-7.31 13.84-1.62 1.05 5.04.01 10.3.79 15.41-1.26-.25-2.18-.93-2.75-2.04-2.75 1.81-6.43 2.91-9.45 1.07-3.08-1.54-3.11-6.33-.39-8.22 3.01-2.08 6.86-1.7 10.33-2.01-.27-2.04-.12-4.9-2.61-5.58-3-1.39-6.22.42-7.59 3.19l-2.17-.2m3.36 6.02c-1.47.95-1.45 2.92-.75 4.35 2.28 2.44 6.42 1.8 8.6-.45 1.47-1.43.87-3.63 1.11-5.44-2.98.19-6.51-.61-8.96 1.54z" fill="#645d53" data-color="2"/>
        <path d="M493.46 283.13c.77.6 1.54 1.2 2.32 1.8 1.83-.93 3.8-1.55 5.85-1.78.01.48.01 1.44.01 1.93-2.44.36-5.4.98-6.19 3.71-.45 4.32-.14 8.68-.09 13.01-.54.08-1.62.22-2.16.3.11-6.32-.26-12.66.26-18.97z" fill="#645d53" data-color="2"/>
        <path d="M578.44 283.62c4.33-1.37 8.83 1.65 9.49 6.07l-2.07-.08c-.78-1.57-1.31-3.59-3.2-4.14-3.57-1.51-7.87 1.67-7.49 5.52-.09 3.1-.46 7.32 2.89 8.91 3.11 1.68 6.97-.05 7.82-3.46.52-.05 1.57-.16 2.09-.21-.82 5.73-8.33 7.95-12.45 4.17-4.54-4.59-3.95-14.72 2.92-16.78z" fill="#645d53" data-color="2"/>
        <path d="M595 285.19c2.63-2.48 7.16-2.39 9.78.05 2.01 2.06 2.28 5.05 2.65 7.76-4.47.01-8.93-.02-13.38.02-.02 3.14 1.61 6.61 4.96 7.3 2.86.86 5.29-1.48 8.04-1.83-2.54 4.94-10.12 4.98-13.27.69-3-4.1-2.56-10.52 1.22-13.99m-1.03 5.99c3.73.05 7.46.04 11.19-.01-.44-2.49-1.39-5.51-4.3-5.94-3.68-.84-6.38 2.68-6.89 5.95z" fill="#645d53" data-color="2"/>
        <path d="M36.24 284.18c3.15-1.55 7.35-.81 9.67 1.86 2.63 3.6 3.15 8.75.75 12.61-2.05 3.72-7.33 4.52-10.86 2.55-5.78-3.6-5.79-13.86.44-17.02m1.25 1.5c-4.48 2.4-4.85 9.07-2 12.87 2.78 3.24 8.64 2.15 9.88-2 .67-3.31 1.15-7.66-1.83-10.03-1.6-1.52-4.08-1.8-6.05-.84z" fill="#645d53" data-color="2"/>
        <path d="M53.56 290.13c-1.34-3.05 1.4-6.43 4.53-6.6 3.79-.91 9.07 1.27 8.34 5.87-2.29-1.27-3.5-4.41-6.44-4.3-2.58-.3-5.92 2.06-4.21 4.86 3.17 2.22 7.88 1.68 10.38 4.93.59 1.42.31 3.03.41 4.54-3.93 4.48-13.32 3.78-14.23-2.95 2.85.29 3.59 4.19 6.63 4 2.62.53 6.71-1.19 5.36-4.45-2.62-3.49-8.48-1.99-10.77-5.9z" fill="#645d53" data-color="2"/>
        <path d="M144.12 283.86c.49.04 1.47.11 1.96.15.33 5.94 0 11.9.14 17.86h-2.43c.23-6-.44-12.05.33-18.01z" fill="#645d53" data-color="2"/>
        <path d="M172.87 289.03c.49-6.52 11.35-7.86 13.57-1.88.51 5.07-.09 10.22.9 15.26-1.31-.37-2.33-1.12-3.07-2.24-2.81 2.15-7.1 3.12-10.01.65-2.38-1.83-2.27-5.77.14-7.51 2.95-2.31 6.98-1.82 10.47-2.41-.48-1.64 0-3.95-1.77-4.89-2.28-1.76-5.38-.79-7.41.85-.26 1.51-1.42 2.04-2.82 2.17m2.29 5.75c0 1.5.01 3 .01 4.51 2.49 1.23 5.69 1.69 7.92-.32 1.97-1.31 1.38-3.9 1.7-5.9-3.31-.24-6.76-.19-9.63 1.71z" fill="#645d53" data-color="2"/>
        <path d="M247.19 301.67c-8.12-3.18-6.41-18.27 2.84-18.28 5.15-.26 7.68 5.16 7.38 9.61-4.47.01-8.94-.04-13.41.08.22 3.08 1.76 6.44 5.04 7.2 2.84.89 5.31-1.14 7.79-2.16-.82 4.13-6.29 4.94-9.64 3.55m-3.14-10.5c3.81.06 7.61.05 11.42-.01-.65-2.72-2.06-6.24-5.46-6.03-3.43-.16-5.18 3.22-5.96 6.04z" fill="#645d53" data-color="2"/>
        <path d="M349.57 289.44c-1.54-3.13 1.84-5.36 4.48-5.86 3.26-.8 7.8.49 8.35 4.28.66 4.81-.17 9.71.71 14.51-1.21-.42-2.26-1.06-3-2.1-3.6 3.27-11.8 2.68-11.72-3.29.44-5.82 7.83-5.71 12.15-5.9.14-2.49-.58-5.6-3.53-5.91-3.36-.89-5.64 1.96-7.44 4.27m1 6.53c-1.09 4.43 5.08 5.58 7.84 3.37 2.43-1.21 1.98-4.12 2.07-6.36-3.3.15-8.29-.67-9.91 2.99z" fill="#645d53" data-color="2"/>
        <path d="M381.71 283.29c.46.26 1.39.77 1.85 1.03.51 4.46-.52 9.05.62 13.44 1.25 4.34 8.77 3.21 9.32-1.07.33-4.47-.1-8.97.24-13.44.45.28 1.36.83 1.81 1.1.32 5.94-.01 11.89.13 17.84-1-.36-2-.71-2.99-1.07-3.42 1.6-8.94 1.97-10.46-2.35-1.28-5.03-.45-10.34-.52-15.48z" fill="#645d53" data-color="2"/>
        <path d="M504.97 289.12c.2-6.49 10.65-7.89 13.33-2.38.86 5.18-.12 10.52.94 15.71-1.23-.45-2.24-1.18-3.02-2.21-2.72 1.89-6.47 2.98-9.45 1-2.59-1.47-3.13-5.39-.92-7.44 2.88-2.9 7.35-2.24 11.04-2.92-.49-1.65-.14-3.89-1.84-4.88-2.27-1.74-5.32-.78-7.34.84-.3 1.41-1.39 2.08-2.74 2.28m1.61 7.4c-.18 4.31 5.9 4.94 8.47 2.44 2.05-1.26 1.41-3.89 1.73-5.89-3.55-.14-8.68-.7-10.2 3.45z" fill="#645d53" data-color="2"/>
        <path d="M533.47 283.07c1.54.79 2.68 2.12 3.08 3.83 1.34 3.84 2.66 7.69 4.15 11.48 2.66-4.32 3.45-9.46 5.66-13.99.55-.24 1.66-.73 2.21-.98-1.86 6.37-4.75 12.39-6.66 18.74-2.82-.06-2.84-3.33-3.83-5.27-1.46-4.63-3.95-8.96-4.61-13.81z" fill="#645d53" data-color="2"/>
        <path d="M556.33 284.25c4.29-2.37 10.34.15 11.51 4.97 2.03 5.44-1.09 13.49-7.77 13.03-9.1.11-11.24-14.13-3.74-18m1.96 1.17c-4.78 1.74-5.02 8.37-3.11 12.29 2.36 4.26 9.49 3.28 10.53-1.54 2.2-4.82-1.33-12.74-7.42-10.75z" fill="#645d53" data-color="2"/>
    </g>
</svg>
